<svg width="30" height="30" viewBox="0 0 30 30" fill="none" xmlns="http://www.w3.org/2000/svg">
<g clip-path="url(#clip0_1073_43)">
<path fill-rule="evenodd" clip-rule="evenodd" d="M24.897 3.93863V1.02773C24.897 0.873332 24.9584 0.725252 25.0676 0.616073C25.1767 0.506893 25.3248 0.445557 25.4792 0.445557C25.6336 0.445557 25.7817 0.506893 25.8909 0.616073C26.0001 0.725252 26.0614 0.873332 26.0614 1.02773V3.93863H28.9723C29.1267 3.93863 29.2748 3.99996 29.384 4.10914C29.4931 4.21832 29.5545 4.3664 29.5545 4.5208C29.5545 4.67521 29.4931 4.82329 29.384 4.93247C29.2748 5.04165 29.1267 5.10298 28.9723 5.10298H26.0614V24.897H28.9723C29.1267 24.897 29.2748 24.9584 29.384 25.0676C29.4931 25.1767 29.5545 25.3248 29.5545 25.4792C29.5545 25.6336 29.4931 25.7817 29.384 25.8909C29.2748 26.0001 29.1267 26.0614 28.9723 26.0614H26.0614V28.9723C26.0614 29.2934 25.8006 29.5545 25.4792 29.5545C25.1578 29.5545 24.897 29.2934 24.897 28.9723V26.0614H5.10298V28.9723C5.10298 29.2934 4.84219 29.5545 4.5208 29.5545C4.19942 29.5545 3.93863 29.2934 3.93863 28.9723V26.0614H1.02773C0.873332 26.0614 0.725252 26.0001 0.616073 25.8909C0.506893 25.7817 0.445557 25.6336 0.445557 25.4792C0.445557 25.3248 0.506893 25.1767 0.616073 25.0676C0.725252 24.9584 0.873332 24.897 1.02773 24.897H3.93863V5.10298H1.02773C0.873332 5.10298 0.725252 5.04165 0.616073 4.93247C0.506893 4.82329 0.445557 4.67521 0.445557 4.5208C0.445557 4.3664 0.506893 4.21832 0.616073 4.10914C0.725252 3.99996 0.873332 3.93863 1.02773 3.93863H3.93863V1.02773C3.93863 0.873332 3.99996 0.725252 4.10914 0.616073C4.21832 0.506893 4.3664 0.445557 4.5208 0.445557C4.67521 0.445557 4.82329 0.506893 4.93247 0.616073C5.04165 0.725252 5.10298 0.873332 5.10298 1.02773V3.93863H24.897ZM5.10298 5.10298V24.897H24.897V5.10298H5.10298ZM23.2628 11.1645V18.9042C23.2628 19.1204 23.2026 19.3324 23.0889 19.5163C22.9752 19.7002 22.8125 19.8489 22.6191 19.9456L15.5822 23.4642V15.0048L23.2628 11.1645ZM14.4178 14.9908V23.4642L7.3809 19.9456C7.1875 19.8489 7.02484 19.7002 6.91116 19.5163C6.79747 19.3324 6.73725 19.1204 6.73724 18.9042V11.1505L14.4178 14.9908ZM7.26655 10.1198C7.30308 10.0961 7.3414 10.0744 7.3809 10.0545L14.4793 6.50496C14.641 6.42424 14.8193 6.38222 15 6.38222C15.1807 6.38222 15.359 6.42424 15.5207 6.50496L22.6191 10.0545C22.6631 10.0764 22.7053 10.1011 22.7457 10.1278L15.014 13.9937L7.26655 10.1198Z" fill="currentColor"/>
</g>
<defs>
<clipPath id="clip0_1073_43">
<rect width="30" height="30" fill="white"/>
</clipPath>
</defs>
</svg>
