<svg width="24" height="24" viewBox="0 0 24 24" fill="none" xmlns="http://www.w3.org/2000/svg">
    <circle cx="12" cy="12" r="12" fill="currentColor"/>
    <path fill-rule="evenodd" clip-rule="evenodd"
          d="M11.9999 4.83331C10.251 4.83331 8.83325 6.25108 8.83325 7.99998C8.83325 9.74888 10.251 11.1666 11.9999 11.1666C13.7488 11.1666 15.1666 9.74888 15.1666 7.99998C15.1666 6.25108 13.7488 4.83331 11.9999 4.83331ZM9.83325 7.99998C9.83325 6.80336 10.8033 5.83331 11.9999 5.83331C13.1965 5.83331 14.1666 6.80336 14.1666 7.99998C14.1666 9.1966 13.1965 10.1666 11.9999 10.1666C10.8033 10.1666 9.83325 9.1966 9.83325 7.99998Z"
          fill="white"/>
    <path d="M16.5703 15.0486C16.7684 15.2409 16.7732 15.5574 16.5808 15.7556L15.3587 17.0149C15.26 17.1166 15.1227 17.1716 14.981 17.1663C14.8394 17.1609 14.7066 17.0957 14.6158 16.9868L14.0602 16.3201C13.8834 16.108 13.912 15.7927 14.1241 15.6159C14.3362 15.4391 14.6515 15.4677 14.8283 15.6799L15.0282 15.9196L15.8632 15.0592C16.0555 14.861 16.3721 14.8563 16.5703 15.0486Z"
          fill="white"/>
    <path fill-rule="evenodd" clip-rule="evenodd"
          d="M13.2737 18.4055C12.866 18.4673 12.4391 18.5 11.9999 18.5C10.6404 18.5 9.38493 18.1861 8.45202 17.6531C7.53325 17.128 6.83325 16.3266 6.83325 15.3333C6.83325 14.3401 7.53325 13.5386 8.45202 13.0136C9.38493 12.4805 10.6404 12.1666 11.9999 12.1666C13.2029 12.1666 14.3216 12.4122 15.2078 12.8358C15.2494 12.8341 15.2912 12.8333 15.3333 12.8333C17.0822 12.8333 18.4999 14.2511 18.4999 16C18.4999 17.7489 17.0822 19.1666 15.3333 19.1666C14.5469 19.1666 13.8274 18.88 13.2737 18.4055ZM13.1666 16C13.1666 14.8034 14.1366 13.8333 15.3333 13.8333C16.5299 13.8333 17.4999 14.8034 17.4999 16C17.4999 17.1966 16.5299 18.1666 15.3333 18.1666C14.1366 18.1666 13.1666 17.1966 13.1666 16ZM13.6116 13.3418C12.7419 13.9062 12.1666 14.8859 12.1666 16C12.1666 16.5353 12.2994 17.0395 12.5339 17.4816C12.3591 17.4937 12.1809 17.5 11.9999 17.5C10.7821 17.5 9.70425 17.2169 8.94816 16.7848C8.17792 16.3447 7.83325 15.8128 7.83325 15.3333C7.83325 14.8538 8.17792 14.3219 8.94816 13.8818C9.70425 13.4498 10.7821 13.1666 11.9999 13.1666C12.574 13.1666 13.1177 13.2296 13.6116 13.3418Z"
          fill="white"/>
    <path d="M11.9999 5.83331C10.8033 5.83331 9.83325 6.80336 9.83325 7.99998C9.83325 9.1966 10.8033 10.1666 11.9999 10.1666C13.1965 10.1666 14.1666 9.1966 14.1666 7.99998C14.1666 6.80336 13.1965 5.83331 11.9999 5.83331Z"
          fill="white"/>
    <path d="M12.1666 16C12.1666 14.8859 12.7419 13.9062 13.6116 13.3418C13.1177 13.2296 12.574 13.1666 11.9999 13.1666C10.7821 13.1666 9.70425 13.4498 8.94816 13.8818C8.17792 14.3219 7.83325 14.8538 7.83325 15.3333C7.83325 15.8128 8.17792 16.3447 8.94816 16.7848C9.70425 17.2169 10.7821 17.5 11.9999 17.5C12.1809 17.5 12.3591 17.4937 12.5339 17.4816C12.2994 17.0395 12.1666 16.5353 12.1666 16Z"
          fill="white"/>
</svg>
